# Blender v2.79 (sub 0) OBJ File: ''
# www.blender.org
mtllib box.mtl
o Cube
v -0.500000 -0.500000 0.500000
v -0.500000 0.500000 0.500000
v -0.500000 -0.500000 -0.500000
v -0.500000 0.500000 -0.500000
v 0.500000 -0.500000 0.500000
v 0.500000 0.500000 0.500000
v 0.500000 -0.500000 -0.500000
v 0.500000 0.500000 -0.500000
v -0.500000 -0.500000 0.000000
v -0.500000 0.000000 0.500000
v -0.500000 0.500000 0.000000
v -0.500000 0.000000 -0.500000
v 0.000000 -0.500000 -0.500000
v 0.000000 0.500000 -0.500000
v 0.500000 0.000000 -0.500000
v 0.500000 -0.500000 0.000000
v 0.500000 0.500000 0.000000
v 0.500000 0.000000 0.500000
v 0.000000 -0.500000 0.500000
v 0.000000 0.500000 0.500000
v 0.000000 0.500000 0.000000
v 0.000000 -0.500000 0.000000
v 0.000000 0.000000 0.500000
v 0.500000 0.000000 0.000000
v 0.000000 0.000000 -0.500000
v -0.500000 0.000000 0.000000
v -0.500000 -0.500000 0.250000
v -0.500000 0.250000 0.500000
v -0.500000 0.500000 -0.250000
v -0.500000 -0.250000 -0.500000
v -0.250000 -0.500000 -0.500000
v 0.250000 0.500000 -0.500000
v 0.500000 -0.250000 -0.500000
v 0.500000 -0.500000 -0.250000
v 0.500000 0.500000 0.250000
v 0.500000 -0.250000 0.500000
v 0.250000 -0.500000 0.500000
v -0.250000 0.500000 0.500000
v -0.500000 -0.500000 -0.250000
v -0.500000 -0.250000 0.500000
v -0.500000 0.500000 0.250000
v -0.500000 0.250000 -0.500000
v 0.250000 -0.500000 -0.500000
v -0.250000 0.500000 -0.500000
v 0.500000 0.250000 -0.500000
v 0.500000 -0.500000 0.250000
v 0.500000 0.500000 -0.250000
v 0.500000 0.250000 0.500000
v -0.250000 -0.500000 0.500000
v 0.250000 0.500000 0.500000
v 0.000000 0.500000 0.250000
v 0.000000 0.500000 -0.250000
v 0.250000 0.500000 0.000000
v -0.250000 0.500000 0.000000
v 0.000000 -0.500000 0.250000
v 0.000000 -0.500000 -0.250000
v -0.250000 -0.500000 0.000000
v 0.250000 -0.500000 0.000000
v -0.250000 0.000000 0.500000
v 0.250000 0.000000 0.500000
v 0.000000 -0.250000 0.500000
v 0.000000 0.250000 0.500000
v 0.500000 0.000000 0.250000
v 0.500000 0.000000 -0.250000
v 0.500000 -0.250000 0.000000
v 0.500000 0.250000 0.000000
v 0.250000 0.000000 -0.500000
v -0.250000 0.000000 -0.500000
v 0.000000 -0.250000 -0.500000
v 0.000000 0.250000 -0.500000
v -0.500000 0.000000 -0.250000
v -0.500000 0.000000 0.250000
v -0.500000 -0.250000 0.000000
v -0.500000 0.250000 0.000000
v -0.500000 0.250000 -0.250000
v 0.250000 0.250000 -0.500000
v 0.500000 0.250000 0.250000
v -0.250000 0.250000 0.500000
v 0.250000 -0.500000 0.250000
v -0.250000 0.500000 0.250000
v 0.250000 0.500000 0.250000
v 0.250000 0.500000 -0.250000
v -0.250000 0.500000 -0.250000
v -0.250000 -0.500000 0.250000
v -0.250000 -0.500000 -0.250000
v 0.250000 -0.500000 -0.250000
v -0.250000 -0.250000 0.500000
v 0.250000 -0.250000 0.500000
v 0.250000 0.250000 0.500000
v 0.500000 -0.250000 0.250000
v 0.500000 -0.250000 -0.250000
v 0.500000 0.250000 -0.250000
v 0.250000 -0.250000 -0.500000
v -0.250000 -0.250000 -0.500000
v -0.250000 0.250000 -0.500000
v -0.500000 -0.250000 -0.250000
v -0.500000 -0.250000 0.250000
v -0.500000 0.250000 0.250000
vt 0.997631 0.500147
vt 0.748816 0.748963
vt 0.748816 0.500147
vt 0.999115 0.500566
vt 0.749557 0.750123
vt 0.749557 0.500566
vt 0.995290 0.499434
vt 0.747645 0.747079
vt 0.747645 0.499434
vt 0.999191 0.498302
vt 0.749596 0.747898
vt 0.749596 0.498302
vt 0.996140 0.497884
vt 0.747861 0.746163
vt 0.747861 0.497884
vt 0.998177 0.500437
vt 0.749364 0.749251
vt 0.749364 0.500437
vt 0.500550 0.500437
vt 0.251737 0.749251
vt 0.251737 0.500437
vt 0.500550 0.002811
vt 0.251737 0.251624
vt 0.251737 0.002811
vt 0.998177 0.002811
vt 0.749364 0.251624
vt 0.749364 0.002811
vt 0.499582 0.497884
vt 0.251302 0.746163
vt 0.251302 0.497884
vt 0.499582 0.001326
vt 0.251302 0.249605
vt 0.251302 0.001326
vt 0.996140 0.001326
vt 0.747861 0.249605
vt 0.747861 0.001326
vt 0.500000 0.498302
vt 0.250404 0.747898
vt 0.250404 0.498302
vt 0.500000 -0.000889
vt 0.250404 0.248707
vt 0.250404 -0.000889
vt 0.999191 -0.000889
vt 0.749596 0.248707
vt 0.749596 -0.000889
vt 0.500000 0.499434
vt 0.252355 0.747079
vt 0.252355 0.499434
vt 0.500000 0.004144
vt 0.252355 0.251789
vt 0.252355 0.004144
vt 0.995290 0.004144
vt 0.747645 0.251789
vt 0.747645 0.004144
vt 0.500000 0.500566
vt 0.250443 0.750123
vt 0.250443 0.500566
vt 0.500000 0.001451
vt 0.250443 0.251009
vt 0.250443 0.001451
vt 0.999115 0.001451
vt 0.749557 0.251009
vt 0.749557 0.001451
vt 0.500000 0.500147
vt 0.251184 0.748963
vt 0.251184 0.500147
vt 0.500000 0.002516
vt 0.251184 0.251332
vt 0.251184 0.002516
vt 0.997631 0.002516
vt 0.748816 0.251332
vt 0.748816 0.002516
vt 0.997631 0.748963
vt 0.999115 0.750123
vt 0.995290 0.747079
vt 0.999191 0.747898
vt 0.996140 0.746163
vt 0.998177 0.749251
vt 0.500550 0.749251
vt 0.500550 0.251624
vt 0.998177 0.251624
vt 0.499582 0.746163
vt 0.499582 0.249605
vt 0.996140 0.249605
vt 0.500000 0.747898
vt 0.500000 0.248707
vt 0.999191 0.248707
vt 0.500000 0.747079
vt 0.500000 0.251789
vt 0.995290 0.251789
vt 0.500000 0.750123
vt 0.500000 0.251009
vt 0.999115 0.251009
vt 0.500000 0.748963
vt 0.500000 0.251332
vt 0.997631 0.251332
vt 0.002369 0.500147
vt 0.251184 0.997779
vt 0.002369 0.997779
vt 0.500000 0.997779
vt 0.000885 0.500566
vt 0.250443 0.999681
vt 0.000885 0.999681
vt 0.500000 0.999681
vt 0.004710 0.499434
vt 0.252355 0.994724
vt 0.004710 0.994724
vt 0.500000 0.994724
vt 0.000809 0.498302
vt 0.250404 0.997494
vt 0.000809 0.997494
vt 0.500000 0.997494
vt 0.003023 0.497884
vt 0.251302 0.994442
vt 0.003023 0.994442
vt 0.499582 0.994442
vt 0.002924 0.500437
vt 0.251737 0.998064
vt 0.002924 0.998064
vt 0.500550 0.998064
vt 0.749364 0.998064
vt 0.998177 0.998064
vt 0.747861 0.994442
vt 0.996140 0.994442
vt 0.749596 0.997494
vt 0.999191 0.997494
vt 0.747645 0.994724
vt 0.995290 0.994724
vt 0.749557 0.999681
vt 0.999115 0.999681
vt 0.748816 0.997779
vt 0.997631 0.997779
vt 0.002369 0.251332
vt 0.002369 0.002516
vt 0.002369 0.748963
vt 0.000885 0.251009
vt 0.000885 0.001451
vt 0.000885 0.750123
vt 0.004710 0.251789
vt 0.004710 0.004144
vt 0.004710 0.747079
vt 0.000809 0.248707
vt 0.000809 -0.000889
vt 0.000809 0.747898
vt 0.003023 0.249605
vt 0.003023 0.001326
vt 0.003023 0.746163
vt 0.002924 0.251624
vt 0.002924 0.002811
vt 0.002924 0.749251
vn -0.7071 0.7071 0.0000
vn -1.0000 0.0000 0.0000
vn 0.0000 0.7071 -0.7071
vn 0.0000 0.0000 -1.0000
vn 0.7071 0.7071 0.0000
vn 1.0000 0.0000 0.0000
vn 0.0000 0.7071 0.7071
vn 0.0000 0.0000 1.0000
vn 0.7071 -0.7071 0.0000
vn 0.0000 -1.0000 0.0000
vn 0.0000 1.0000 0.0000
vn -0.5773 0.5773 -0.5773
vn 0.0000 -0.7071 -0.7071
vn 0.5773 -0.5773 -0.5773
vn 0.7071 0.0000 0.7071
vn 0.5773 0.5773 0.5773
vn 0.7071 0.0000 -0.7071
vn 0.5773 0.5773 -0.5773
vn -0.7071 0.0000 -0.7071
vn -0.7071 0.0000 0.7071
vn -0.5773 0.5773 0.5773
vn -0.7071 -0.7071 0.0000
vn -0.5773 -0.5773 -0.5773
vn 0.5773 -0.5773 0.5773
vn 0.0000 -0.7071 0.7071
vn -0.5773 -0.5773 0.5773
usemtl None
s 1
f 11/1/1 75/2/2 74/3/2
f 14/4/3 76/5/4 70/6/4
f 17/7/5 77/8/6 66/9/6
f 20/10/7 78/11/8 62/12/8
f 16/13/9 79/14/10 58/15/10
f 11/16/1 80/17/11 54/18/11
f 21/19/11 81/20/11 53/21/11
f 14/22/3 82/23/11 32/24/3
f 4/25/12 83/26/11 44/27/3
f 22/28/10 84/29/10 57/30/10
f 13/31/13 85/32/10 31/33/13
f 7/34/14 86/35/10 43/36/13
f 23/37/8 87/38/8 61/39/8
f 18/40/15 88/41/8 36/42/15
f 6/43/16 89/44/8 48/45/15
f 24/46/6 90/47/6 65/48/6
f 15/49/17 91/50/6 33/51/17
f 8/52/18 92/53/6 45/54/17
f 25/55/4 93/56/4 69/57/4
f 12/58/19 94/59/4 30/60/19
f 4/61/12 95/62/4 42/63/19
f 26/64/2 96/65/2 73/66/2
f 10/67/20 97/68/2 40/69/20
f 2/70/21 98/71/2 28/72/20
f 11/1/1 29/73/1 75/2/2
f 14/4/3 32/74/3 76/5/4
f 17/7/5 35/75/5 77/8/6
f 20/10/7 38/76/7 78/11/8
f 16/13/9 46/77/9 79/14/10
f 11/16/1 41/78/1 80/17/11
f 21/19/11 51/79/11 81/20/11
f 14/22/3 52/80/11 82/23/11
f 4/25/12 29/81/1 83/26/11
f 22/28/10 55/82/10 84/29/10
f 13/31/13 56/83/10 85/32/10
f 7/34/14 34/84/9 86/35/10
f 23/37/8 59/85/8 87/38/8
f 18/40/15 60/86/8 88/41/8
f 6/43/16 50/87/7 89/44/8
f 24/46/6 63/88/6 90/47/6
f 15/49/17 64/89/6 91/50/6
f 8/52/18 47/90/5 92/53/6
f 25/55/4 67/91/4 93/56/4
f 12/58/19 68/92/4 94/59/4
f 4/61/12 44/93/3 95/62/4
f 26/64/2 71/94/2 96/65/2
f 10/67/20 72/95/2 97/68/2
f 2/70/21 41/96/1 98/71/2
f 98/71/2 74/3/2 26/64/2
f 98/71/2 41/96/1 74/3/2
f 41/96/1 11/1/1 74/3/2
f 97/68/2 73/66/2 9/97/22
f 97/68/2 72/95/2 73/66/2
f 72/95/2 26/64/2 73/66/2
f 96/65/2 30/98/19 3/99/23
f 96/65/2 71/94/2 30/98/19
f 71/94/2 12/100/19 30/98/19
f 95/62/4 70/6/4 25/55/4
f 95/62/4 44/93/3 70/6/4
f 44/93/3 14/4/3 70/6/4
f 94/59/4 69/57/4 13/101/13
f 94/59/4 68/92/4 69/57/4
f 68/92/4 25/55/4 69/57/4
f 93/56/4 33/102/17 7/103/14
f 93/56/4 67/91/4 33/102/17
f 67/91/4 15/104/17 33/102/17
f 92/53/6 66/9/6 24/46/6
f 92/53/6 47/90/5 66/9/6
f 47/90/5 17/7/5 66/9/6
f 91/50/6 65/48/6 16/105/9
f 91/50/6 64/89/6 65/48/6
f 64/89/6 24/46/6 65/48/6
f 90/47/6 36/106/15 5/107/24
f 90/47/6 63/88/6 36/106/15
f 63/88/6 18/108/15 36/106/15
f 89/44/8 62/12/8 23/37/8
f 89/44/8 50/87/7 62/12/8
f 50/87/7 20/10/7 62/12/8
f 88/41/8 61/39/8 19/109/25
f 88/41/8 60/86/8 61/39/8
f 60/86/8 23/37/8 61/39/8
f 87/38/8 40/110/20 1/111/26
f 87/38/8 59/85/8 40/110/20
f 59/85/8 10/112/20 40/110/20
f 86/35/10 58/15/10 22/28/10
f 86/35/10 34/84/9 58/15/10
f 34/84/9 16/13/9 58/15/10
f 85/32/10 57/30/10 9/113/22
f 85/32/10 56/83/10 57/30/10
f 56/83/10 22/28/10 57/30/10
f 84/29/10 49/114/25 1/115/26
f 84/29/10 55/82/10 49/114/25
f 55/82/10 19/116/25 49/114/25
f 83/26/11 54/18/11 21/19/11
f 83/26/11 29/81/1 54/18/11
f 29/81/1 11/16/1 54/18/11
f 82/23/11 53/21/11 17/117/5
f 82/23/11 52/80/11 53/21/11
f 52/80/11 21/19/11 53/21/11
f 81/20/11 50/118/7 6/119/16
f 81/20/11 51/79/11 50/118/7
f 51/79/11 20/120/7 50/118/7
f 80/17/11 38/121/7 20/120/7
f 80/17/11 41/78/1 38/121/7
f 41/78/1 2/122/21 38/121/7
f 79/14/10 37/123/25 19/116/25
f 79/14/10 46/77/9 37/123/25
f 46/77/9 5/124/24 37/123/25
f 78/11/8 28/125/20 10/112/20
f 78/11/8 38/76/7 28/125/20
f 38/76/7 2/126/21 28/125/20
f 77/8/6 48/127/15 18/108/15
f 77/8/6 35/75/5 48/127/15
f 35/75/5 6/128/16 48/127/15
f 76/5/4 45/129/17 15/104/17
f 76/5/4 32/74/3 45/129/17
f 32/74/3 8/130/18 45/129/17
f 75/2/2 42/131/19 12/100/19
f 75/2/2 29/73/1 42/131/19
f 29/73/1 4/132/12 42/131/19
f 28/72/20 72/95/2 10/67/20
f 28/72/20 98/71/2 72/95/2
f 98/71/2 26/64/2 72/95/2
f 40/69/20 27/133/22 1/134/26
f 40/69/20 97/68/2 27/133/22
f 97/68/2 9/97/22 27/133/22
f 73/66/2 39/135/22 9/97/22
f 73/66/2 96/65/2 39/135/22
f 96/65/2 3/99/23 39/135/22
f 42/63/19 68/92/4 12/58/19
f 42/63/19 95/62/4 68/92/4
f 95/62/4 25/55/4 68/92/4
f 30/60/19 31/136/13 3/137/23
f 30/60/19 94/59/4 31/136/13
f 94/59/4 13/101/13 31/136/13
f 69/57/4 43/138/13 13/101/13
f 69/57/4 93/56/4 43/138/13
f 93/56/4 7/103/14 43/138/13
f 45/54/17 64/89/6 15/49/17
f 45/54/17 92/53/6 64/89/6
f 92/53/6 24/46/6 64/89/6
f 33/51/17 34/139/9 7/140/14
f 33/51/17 91/50/6 34/139/9
f 91/50/6 16/105/9 34/139/9
f 65/48/6 46/141/9 16/105/9
f 65/48/6 90/47/6 46/141/9
f 90/47/6 5/107/24 46/141/9
f 48/45/15 60/86/8 18/40/15
f 48/45/15 89/44/8 60/86/8
f 89/44/8 23/37/8 60/86/8
f 36/42/15 37/142/25 5/143/24
f 36/42/15 88/41/8 37/142/25
f 88/41/8 19/109/25 37/142/25
f 61/39/8 49/144/25 19/109/25
f 61/39/8 87/38/8 49/144/25
f 87/38/8 1/111/26 49/144/25
f 43/36/13 56/83/10 13/31/13
f 43/36/13 86/35/10 56/83/10
f 86/35/10 22/28/10 56/83/10
f 31/33/13 39/145/22 3/146/23
f 31/33/13 85/32/10 39/145/22
f 85/32/10 9/113/22 39/145/22
f 57/30/10 27/147/22 9/113/22
f 57/30/10 84/29/10 27/147/22
f 84/29/10 1/115/26 27/147/22
f 44/27/3 52/80/11 14/22/3
f 44/27/3 83/26/11 52/80/11
f 83/26/11 21/19/11 52/80/11
f 32/24/3 47/148/5 8/149/18
f 32/24/3 82/23/11 47/148/5
f 82/23/11 17/117/5 47/148/5
f 53/21/11 35/150/5 17/117/5
f 53/21/11 81/20/11 35/150/5
f 81/20/11 6/119/16 35/150/5
f 54/18/11 51/79/11 21/19/11
f 54/18/11 80/17/11 51/79/11
f 80/17/11 20/120/7 51/79/11
f 58/15/10 55/82/10 22/28/10
f 58/15/10 79/14/10 55/82/10
f 79/14/10 19/116/25 55/82/10
f 62/12/8 59/85/8 23/37/8
f 62/12/8 78/11/8 59/85/8
f 78/11/8 10/112/20 59/85/8
f 66/9/6 63/88/6 24/46/6
f 66/9/6 77/8/6 63/88/6
f 77/8/6 18/108/15 63/88/6
f 70/6/4 67/91/4 25/55/4
f 70/6/4 76/5/4 67/91/4
f 76/5/4 15/104/17 67/91/4
f 74/3/2 71/94/2 26/64/2
f 74/3/2 75/2/2 71/94/2
f 75/2/2 12/100/19 71/94/2
