# Blender v2.79 (sub 0) OBJ File: ''
# www.blender.org
mtllib box.mtl
o Cube
v -1.000000 1.000000 1.000000
v -1.000000 -1.000000 -1.000000
v -1.000000 -1.000000 1.000000
v -1.000000 1.000000 -1.000000
v 1.000000 -1.000000 -1.000000
v 1.000000 1.000000 -1.000000
v 1.000000 -1.000000 1.000000
v 1.000000 1.000000 1.000000
vt 0.999092 0.997583
vt 0.003926 0.002417
vt 0.999092 0.002417
vt 0.007661 0.004643
vt 0.998457 0.995439
vt 0.007661 0.995439
vt 0.995935 0.002514
vt 0.004147 0.994303
vt 0.004147 0.002514
vt 0.997277 0.997277
vt 0.002641 0.002641
vt 0.997277 0.002641
vt 0.996458 0.003542
vt 0.003542 0.996458
vt 0.003542 0.003543
vt 1.002708 0.998016
vt 0.000393 -0.004299
vt 1.002708 -0.004299
vt 0.003926 0.997583
vt 0.998457 0.004643
vt 0.995935 0.994303
vt 0.002641 0.997277
vt 0.996458 0.996458
vt 0.000393 0.998016
vn -0.5774 0.5774 0.5774
vn -0.5774 -0.5774 -0.5774
vn -0.5774 -0.5774 0.5774
vn -0.5774 0.5774 -0.5774
vn 0.5774 -0.5774 -0.5774
vn 0.5774 0.5774 -0.5774
vn 0.5774 -0.5774 0.5774
vn 0.5774 0.5774 0.5774
usemtl None
s 1
f 1/1/1 2/2/2 3/3/3
f 4/4/4 5/5/5 2/6/2
f 6/7/6 7/8/7 5/9/5
f 8/10/8 3/11/3 7/12/7
f 5/13/5 3/14/3 2/15/2
f 4/16/4 8/17/8 6/18/6
f 1/1/1 4/19/4 2/2/2
f 4/4/4 6/20/6 5/5/5
f 6/7/6 8/21/8 7/8/7
f 8/10/8 1/22/1 3/11/3
f 5/13/5 7/23/7 3/14/3
f 4/16/4 1/24/1 8/17/8
